<svg width="544" height="117" viewBox="0 0 544 117" fill="none" xmlns="http://www.w3.org/2000/svg">
<g filter="url(#filter0_d_1_1235)">
<path fill-rule="evenodd" clip-rule="evenodd" d="M86.5063 34.2165C86.5063 39.989 90.2181 33.9934 91.4646 32.7107C93.3108 30.8597 95.5717 29.4825 98.0571 28.695C98.0571 30.8144 96.4782 40.1563 95.9519 43.3911C95.4256 46.6259 95.3979 45.5384 96.8937 47.7414C98.9989 46.7096 98.6942 47.5741 99.3036 42.1641C99.7267 39.8117 100.023 37.4378 100.19 35.0531C101.658 36.1685 108.5 52.2868 108.5 55.6053C108.5 56.8881 105.73 59.0075 104.899 59.6488C100.024 63.2183 91.6308 62.6606 91.0491 56.2467C90.8244 54.3677 90.4821 52.505 90.0242 50.6694C89.7195 48.9405 89.7195 46.8211 87.9744 46.3471C86.4786 47.4346 86.0078 53.2071 86.174 55.4938L87.1988 62.2144C87.365 63.8876 84.6782 64.752 82.4899 64.752C76.95 64.752 80.6894 55.4938 77.3101 55.4938C74.5401 55.4938 75.8974 65.3934 70.3021 65.3934C67.3382 65.3934 70.4683 58.8122 66.618 56.7766C62.8509 58.7565 66.064 64.1106 60.6626 66.7319C58.4466 67.8474 56.8954 66.2579 56.5076 63.9433C55.7874 60.6806 57.117 59.3421 54.4579 57.9199C50.5245 60.0671 53.5161 65.5886 46.148 65.5886C38.309 65.5886 36.4254 55.4659 33.6831 55.4659C31.3841 55.4659 30.3592 63.3856 31.2455 65.979C32.1319 68.5724 36.4254 72.5602 36.4254 75.1536C36.4254 76.0181 23.545 90.1843 12.9361 77.9422C10.0048 74.7348 8.38266 70.5326 8.39333 66.1742C8.40968 63.3385 9.02584 60.5389 10.2008 57.9616C11.3757 55.3843 13.0825 53.0886 15.2075 51.2272C19.4596 47.495 24.7109 45.1087 30.3038 44.3671C58.8067 38.7898 58.5574 33.4357 62.3246 32.4318L68.3077 36.8378C69.942 35.7502 74.5124 29.5595 74.5124 27.5238C74.5124 25.4881 67.5875 22.4485 66.0086 21.4167C64.2912 23.9543 63.9865 22.4485 61.1612 28.5556C60.3579 30.3682 61.4659 30.2845 57.6987 32.3481C35.0958 44.5902 15.623 32.7385 6.98067 58.6728C5.87268 62.047 3.6844 70.8312 4.37689 74.8747C5.43621 79.6689 7.47368 84.1891 10.36 88.1487C17.3403 96.5145 27.6169 96.6819 35.2897 88.9295C38.6747 85.7537 40.8911 81.517 41.5775 76.9104C43.0048 77.2058 44.4474 77.4199 45.8986 77.5518C49.4996 77.5518 50.2198 75.7392 52.5743 74.4843C54.5409 75.9065 55.0672 79.3644 59.2499 79.3644C61.0504 79.3644 64.5682 76.2133 65.3715 75.0978C67.2551 76.3806 68.8063 78.2769 71.8809 76.9941C73.874 75.8759 75.4496 74.1329 76.3683 72.0303C78.5565 72.5881 77.6148 75.9623 82.7115 75.9623C84.3417 75.7757 85.8884 75.1373 87.1795 74.1181C88.4706 73.099 89.4554 71.7391 90.0242 70.1899C91.1876 70.9149 91.1045 71.3889 92.7942 72.0861C94.4838 72.7833 95.0655 72.9785 96.2566 73.5362C95.5402 77.8988 95.1237 82.306 95.0102 86.7264C95.0102 94.3115 99.4698 102.064 106.921 102.064H109.054C120.272 102.064 126.865 90.0449 129.469 80.954C131.518 73.9266 130.106 76.6037 135.008 72.2534C141.352 66.3973 144.177 56.6929 150.548 53.2908C152.231 52.7029 153.877 52.0138 155.478 51.2272C156.836 50.0559 160.658 43.9488 159.716 41.9689C158.775 39.989 155.894 41.5785 153.761 41.9689C146.787 43.325 139.739 44.2562 132.654 44.7575C133.125 42.9449 142.46 34.105 146.31 34.105C149.606 34.105 149.357 40.4073 152.819 36.8936C154.762 34.1564 155.878 30.9123 156.032 27.5517C155.924 26.1088 155.305 24.7528 154.289 23.7296C153.273 22.7063 151.926 22.0836 150.493 21.9744C143.734 21.9744 131.103 36.4195 126.394 41.8852C121.186 47.825 119.635 56.9717 126.394 56.9717C133.153 56.9717 136.31 54.936 140.687 54.8524C139.607 57.3568 138.033 59.6146 136.061 61.4893C126.006 71.5284 129.69 61.8797 121.546 61.8797C116.754 61.8797 114.234 70.2456 114.234 75.3209C114.234 79.1135 119.026 79.8943 122.876 78.8067C123.984 78.4721 125.452 77.4682 125.452 79.0298C125.452 81.1771 119.109 90.4074 109.913 90.4074C107.076 90.6145 104.27 89.7159 102.074 87.8976C98.9989 84.7186 98.9989 81.0934 98.9989 77.2172C98.9989 70.7476 100.578 74.4286 108.334 66.7041C110.036 64.6769 111.055 62.1574 111.242 59.5094C112.987 50.8089 113.846 47.1836 109.442 37.2003C108.5 35.0531 107.807 33.5472 106.672 31.6231C105.668 29.7158 104.798 27.7404 104.068 25.7112C111.381 23.9822 128.582 19.2973 133.208 13.3854C133.679 12.8277 139.025 3.90409 135.092 3.90409C134.15 3.90409 133.125 5.54938 132.322 6.10711C127.917 9.73233 112.766 13.2181 107.115 15.1144C99.1651 17.6521 86.2847 23.8986 86.2847 33.6866L86.5063 34.2165ZM245.53 40.6304C245.345 46.568 244.31 52.4476 242.455 58.0872C240.436 62.6029 237.402 66.584 233.591 69.7158C229.967 73.0329 225.959 75.898 221.653 78.249C215.57 81.7382 208.616 83.3844 201.626 82.9897C189.604 82.9897 182.403 70.1899 196.917 61.6567C201.711 59.5971 206.747 58.1632 211.903 57.39C216.931 56.6942 221.771 54.9973 226.14 52.3984C228.178 51.373 230.047 50.0373 231.68 48.4385C232.373 47.825 233.952 46.2355 231.985 45.9287C231.182 45.7614 229.381 46.8769 228.522 47.1837C211.487 55.2428 194.674 48.1318 187.222 63.2183C184.777 67.9659 183.432 73.2097 183.289 78.5557C183.4 82.8254 185.129 86.8906 188.121 89.9184C191.113 92.9463 195.142 94.7076 199.382 94.8413H201.515C209.825 94.8413 224.534 87.3399 229.63 83.5474C236.528 78.4721 244.948 68.9907 245.724 59.8998C246.583 61.2383 246.832 64.1106 248.245 66.3137C252.316 72.6439 258.687 67.0108 261.596 57.9478C262.265 55.7429 263.07 53.5821 264.006 51.4781C267.551 44.2835 272.316 50.5858 274.532 43.9488C278.853 30.4519 275.252 36.7542 265.834 36.7542C263.703 36.6358 261.616 36.1056 259.685 35.1925C257.923 37.1052 256.935 39.6116 256.915 42.2199C256.796 42.8536 256.807 43.5049 256.948 44.1341C257.088 44.7633 257.354 45.3571 257.73 45.8792C258.106 46.4013 258.584 46.8406 259.134 47.1704C259.684 47.5002 260.296 47.7134 260.931 47.7972C260.3 49.9286 259.484 52.0001 258.493 53.9879C257.903 54.8749 257.139 55.6316 256.249 56.2117C255.358 56.7918 254.359 57.1832 253.314 57.3621C247.968 57.3621 248.826 45.9845 248.743 40.1284C248.66 34.2723 247.746 36.3359 251.513 32.7107C253.61 31.0701 255.899 29.6935 258.327 28.6114C264.006 25.2092 279.933 14.9192 279.933 6.69272C279.933 5.68881 279.379 4.57335 278.354 4.57335C277.329 4.57335 274.033 8.53322 273.091 9.39769C263.119 19.3531 243.425 21.333 240.821 39.4313C240.821 40.1284 241.458 42.2199 242.566 42.5266C243.674 42.8334 244.838 41.1602 245.475 40.463L245.53 40.6304ZM523.385 37.535C523.385 41.8016 524.189 39.989 524.798 45.371C525.13 48.2991 526.294 58.0035 525.435 60.1508C525.018 61.0814 524.398 61.9055 523.621 62.562C522.844 63.2185 521.93 63.6906 520.948 63.9433C517.264 57.0554 511.225 54.685 507.929 61.8797C506.564 64.8368 505.819 68.0454 505.741 71.3053C505.741 74.7074 508.095 78.8904 511.474 78.4163L516.405 77.7749C515.242 82.5156 506.128 88.5391 503.303 88.5391H501.087C499.035 88.2876 497.14 87.3065 495.743 85.7726C494.347 84.2386 493.54 82.2528 493.47 80.1732C493.47 77.3845 494.19 75.1815 494.107 72.1977C494.107 67.8474 493.553 69.0186 496.877 66.8156C498.721 65.9281 500.319 64.5968 501.53 62.9394C502.722 60.8797 503.468 58.5893 503.718 56.2188C503.718 54.3225 503.164 54.2389 502.472 53.1513C498.622 54.0995 491.392 60.3181 489.204 63.4135C481.808 73.7035 486.434 82.7108 466.573 88.2323L452.446 91.8018C447.959 92.1085 447.904 92.0248 447.904 94.5904C447.904 97.6021 462.335 97.0443 465.327 97.0443C468.591 97.2131 471.848 96.5804 474.815 95.2008C477.783 93.8211 480.373 91.7359 482.362 89.1246C486.988 83.2127 487.902 74.5122 490.921 72.3929C490.252 76.7566 489.938 81.1679 489.979 85.5831C489.979 92.5546 493.83 99.5262 500.644 99.5262H502.472C507.873 99.5262 515.269 91.7738 517.762 88.3717C519.663 85.4027 520.901 82.0536 521.391 78.5557C522.554 72.6439 523.967 74.2055 526.654 70.3293C530.643 64.5568 532.194 58.5612 531.75 49.3867C531.446 44.897 531.363 40.8534 530.809 36.7542C530.255 32.6549 529.784 28.5277 525.934 28.1931C524.832 31.1658 524.015 34.2381 523.496 37.3677L523.385 37.535ZM278.41 75.3209C272.371 71.2216 274.809 53.8206 278.105 53.8206H279.684C282.592 53.8206 282.98 61.1826 282.98 63.9433C282.543 68.0914 280.96 72.0331 278.41 75.3209ZM289.489 35.081C289.489 44.2556 291.456 51.5339 291.622 59.6767C291.761 64.9751 292.093 66.0906 289.794 70.1062C288.714 72.0025 285.251 75.8786 282.509 75.8786C282.897 70.887 286.747 69.1581 286.747 54.7687C286.747 49.1915 284.947 42.192 279.434 42.192C275.833 42.192 274.421 48.8568 273.645 52.008C270.875 63.3856 271.983 64.5847 272.149 74.0661C272.149 82.8502 277.329 79.1971 266.609 85.2206C265.363 85.9177 264.56 86.3918 263.23 87.0332C261.901 87.6746 260.709 87.8977 260.709 90.017C267.247 91.5229 270.764 86.6428 275.944 85.4437C277.911 86.6986 278.077 87.5909 281.124 87.5909C286.664 87.5909 292.37 79.5039 292.675 75.3209H293.312C296.359 88.3717 308.851 92.0527 315.472 72.3929C316.026 70.8312 317.134 68.684 317.438 67.6522C320.43 67.6522 320.513 69.4648 323.255 69.4648C328.352 69.4648 330.79 64.1943 331.731 59.9835C332.978 59.9835 332.452 60.3181 333.532 60.3181C337.936 60.3181 340.124 53.1234 340.761 49.3867C341.046 47.6167 341.102 45.8169 340.928 44.0325C340.928 42.1362 341.62 39.4313 339.349 38.8178C336.136 41.0208 340.29 48.2991 334.474 48.2991C333.144 48.2991 333.227 46.4865 331.427 45.5105C326.302 48.2991 330.873 57.5016 324.419 57.5016C322.064 57.5016 322.701 55.6053 318.879 55.6053C312.591 55.6053 313.699 74.3449 303.007 74.3449C299.877 74.3449 297.051 69.6042 296.497 66.2858C295.998 61.6548 295.739 57.0007 295.722 52.3426C295.334 47.2115 293.589 36.8657 293.589 32.3481C293.589 29.9778 293.589 27.2171 292.093 26.2689C289.739 27.4401 289.323 32.5991 289.323 35.1089L289.489 35.081ZM362.921 70.7476V72.8669C362.921 81.6511 375.081 87.8976 384.499 87.8976H387.269C398.044 87.8976 417.351 79.978 422.697 74.7632C428.486 69.186 434.636 56.9996 429.123 49.4703C421.34 38.7341 412.504 47.9087 412.504 58.0872C412.504 61.6566 415.107 63.3019 418.625 63.3019C422.143 63.3019 421.783 61.0989 423.805 60.5133C424.054 60.9037 424.747 61.6287 424.747 61.7682C424.747 65.4213 412.337 70.7197 408.82 72.1419C401.859 75.0252 394.433 76.6034 386.909 76.7989C379.042 76.7989 367.741 72.4486 367.741 65.1703V63.9154C367.741 59.8162 374.278 55.8563 377.574 54.5177C385.026 51.506 401.756 51.3387 412.42 40.8256C414.858 38.5389 414.47 37.2004 410.232 40.4352C403.818 44.5412 396.617 47.2398 389.097 48.3549C380.787 49.4424 373.724 49.6097 368.683 56.8881C366.799 59.6767 362.893 66.3694 362.893 70.8312L362.921 70.7476ZM169.744 55.9678C169.744 59.0353 169.051 64.5847 171.24 64.5847C173.428 64.5847 173.206 59.8998 174.01 55.9678C174.776 52.6462 175.203 49.2543 175.284 45.8451C177.215 51.0832 178.427 56.5624 178.885 62.1307C178.885 66.955 174.259 72.4765 171.655 75.0978C164.453 82.4319 152.986 84.7465 143.152 87.5072L135.479 89.7939C133.43 90.4353 128.804 91.2998 128.333 93.1124C129.801 95.176 134.676 94.6183 138.222 94.1442C141.767 93.6701 154.149 94.4509 160.381 92.471C163.214 91.5297 165.906 90.2071 168.387 88.5391C176.336 82.9618 183.871 69.6321 183.871 55.9678C183.449 49.7887 182.287 43.6837 180.408 37.7859C179.549 34.9973 176.641 22.1138 175.699 20.6359C174.757 19.1579 173.594 18.879 172.929 20.6359C172.761 22.4245 172.705 24.2222 172.763 26.0179C172.292 29.1691 171.987 32.5712 171.572 35.8339C170.973 38.9927 170.585 42.1881 170.409 45.3989C170.409 47.2115 170.409 49.1078 170.409 50.9762C170.093 52.6227 169.908 54.2918 169.855 55.9678H169.744ZM440.259 58.0872C440.259 67.0387 446.685 60.4575 446.685 53.8206C447.931 54.7687 447.461 59.0353 447.405 60.3739C447.35 61.7124 447.627 61.322 447.627 62.7721C447.627 72.6438 435.688 81.4838 428.237 84.2724C420.849 87.31 413.304 89.9445 405.634 92.1642C394.333 94.9529 400.094 97.0723 400.094 97.0723C407.961 97.0723 424.691 95.7895 431.201 92.471C433.818 91.2151 436.337 89.7609 438.735 88.1207C447.765 81.9579 453.721 70.4966 453.721 55.4101C453.307 47.178 451.884 39.0291 449.483 31.149C448.624 28.1373 448.873 25.99 446.436 24.7352C444.774 25.5996 445.023 25.516 444.469 27.5238C443.412 31.7656 442.854 36.1179 442.807 40.4909C442.585 45.2316 440.314 57.8641 440.314 57.9478L440.259 58.0872ZM461.615 51.3666C461.615 55.8842 461.227 58.4776 464.745 61.7403C466.664 63.5019 469.089 64.6052 471.67 64.8914C473.775 64.8914 475.659 59.6767 475.659 55.6332C475.659 53.5138 472.889 53.0398 471.338 52.3147C464.357 48.6895 468.817 43.3911 472.612 43.3911C479.814 43.3911 481.309 54.936 479.509 60.4575C477.708 65.979 471.199 70.4966 465.853 72.4765C461.532 74.1497 455.022 75.2651 454.302 78.0538C456.103 79.95 459.177 79.2529 463.72 79.2529C465.685 79.4712 467.674 79.2271 469.529 78.5399C471.385 77.8528 473.056 76.7413 474.412 75.2931C477.065 73.0223 479.362 70.3618 481.226 67.4012C485.486 60.308 487.261 51.9819 486.268 43.7536C485.548 36.6426 479.038 27.8026 471.116 31.5115C466.546 33.6309 461.615 44.395 461.615 51.3387V51.3666ZM348.296 64.8914L349.625 55.1591C350.096 51.7012 349.792 45.9287 350.733 45.2037C354.417 61.4057 358.6 69.9389 341.786 80.1452C335.982 83.1678 329.872 85.5519 323.56 87.2563C320.43 88.2044 317.051 89.0689 313.588 89.7939C310.126 90.519 306.22 90.7421 304.42 93.4192C306.996 95.176 310.68 94.3115 314.142 94.3115C325.444 94.3115 334.169 94.451 343.199 88.9295C348.025 86.2587 351.9 82.1338 354.279 77.1335C361.647 60.6248 357.326 45.8451 352.451 29.7268C352.063 28.3883 350.429 20.7195 348.462 24.1495C346.191 28.1094 346.412 49.2472 346.412 55.7726C346.412 60.9874 344.612 64.6126 348.213 64.6963L348.296 64.8914ZM447.322 9.64866C437.655 9.64866 440.009 5.99556 433.888 5.99556C426.52 5.99556 422.032 19.9387 425.966 19.9387C427.766 19.9387 428.459 15.9789 431.506 15.9789C435.273 15.9789 435.605 19.6041 444.303 19.6041C447.211 19.6041 454.995 17.401 457.737 13.8595C460.008 11.0708 463.776 5.49361 463.776 0.641394C463.776 0.250986 463.388 0 462.917 0C461.338 0 459.316 5.24264 457.017 6.72061C454.027 8.3053 450.746 9.25449 447.377 9.50924L447.322 9.64866ZM70.3298 40.9371C67.3118 39.3419 64.1604 38.0169 60.9119 36.9773C58.4743 36.9773 53.9316 43.0007 53.9316 46.1518C53.9316 48.2991 55.9813 48.9405 57.6156 49.4703C59.5618 50.2593 61.6005 50.7935 63.6819 51.0598C65.787 51.0598 69.0002 46.7932 69.388 45.2037C71.5208 45.7614 76.0082 49.2472 77.3378 49.2472C78.6673 49.2472 83.2101 42.2756 83.6256 40.8813C84.0134 38.9293 81.7143 38.0927 80.3016 37.1724C78.7089 36.133 76.9977 35.2904 75.2049 34.6627C74.2631 34.6627 70.8837 40.0168 70.3298 41.0486V40.9371ZM153.429 68.5167C150.909 66.9726 148.258 65.6568 145.507 64.5847C144.26 64.5847 138.831 71.6121 138.831 74.0661C138.831 75.5719 143.457 78.6394 146.753 78.6394C148.637 78.6394 152.099 74.4564 152.57 72.8669L160.104 76.6595C161.933 75.6556 166.558 70.3572 166.558 67.3454C166.558 66.0906 160.187 62.8279 158.941 62.1307C156.586 63.7202 155.257 67.2618 153.401 68.5167H153.429ZM75.2049 88.6506C72.5091 86.5159 69.4077 84.9594 66.0917 84.0772C60.5518 92.2758 58.8898 93.0845 64.0696 95.9289C67.9753 98.1319 68.3908 100.502 73.4044 93.0008L81.2434 97.6578C82.9054 96.152 88.0021 90.9373 88.0021 88.4275C88.0021 86.9216 79.6922 83.2128 79.6922 83.2128C78.7505 83.2128 75.6758 87.7024 75.1218 88.6506H75.2049ZM478.567 18.9348C480.201 16.4808 483.581 16.8155 486.185 17.3732C483.761 18.3567 481.18 18.8859 478.567 18.9348ZM475.576 15.8673C475.576 20.608 475.88 19.7435 469.62 20.608C466.462 21.0821 466.158 21.6398 465.521 24.4842C468.9 26.0458 478.179 23.7591 482.14 23.1456C497.209 20.9984 492.445 11.9911 487.403 11.9911C485.908 11.9911 485.215 12.6325 484.024 12.6325C482.833 12.6325 483.082 11.9911 482.224 11.9911C481.365 11.9911 480.091 13.5806 479.149 14.222L478.207 3.8762C477.403 4.41995 476.735 5.14328 476.255 5.98977C475.774 6.83627 475.494 7.78305 475.437 8.7563C475.319 11.1125 475.421 13.4746 475.742 15.8116L475.576 15.8673ZM417.074 32.878C417.074 37.4513 426.187 39.989 426.492 39.989C429.096 39.989 433.583 32.7943 432.946 30.2566C432.309 27.719 428.348 27.3007 425.578 25.2929C424.802 24.6151 423.968 24.0085 423.085 23.4803C421.423 24.5679 417.019 30.2566 417.019 32.9616L417.074 32.878ZM201.211 31.7625C201.211 34.3838 200.795 36.3638 202.762 36.3638C204.728 36.3638 205.366 34.9415 206.39 34.2165C206.944 36.3637 207.942 37.9254 208.413 40.463C208.828 42.5266 208.413 47.1 210.379 47.1C212.346 47.1 212.983 42.0526 213.371 40.5467C213.759 39.0408 214.008 38.1764 214.313 36.9773C214.783 35.1646 214.479 34.1886 216.445 34.1886C216.512 34.6055 216.693 34.9955 216.967 35.3155C217.241 35.6354 217.597 35.8727 217.997 36.0012C218.712 35.5045 219.256 34.7958 219.553 33.9736C219.85 33.1513 219.885 32.2563 219.654 31.4129C219.422 30.5696 218.936 29.8198 218.261 29.2678C217.587 28.7157 216.759 28.3888 215.891 28.3325C213.454 28.3325 211.487 33.4914 211.321 35.6945C209.216 32.7664 208.274 27.1613 204.258 27.1613C201.986 27.1613 201.211 29.3643 201.211 31.7346V31.7625ZM386.798 30.8144C386.632 23.6197 376.743 17.8472 376.743 29.3085C376.767 29.8234 376.869 30.3314 377.048 30.8144C380.51 31.6231 379.956 30.8144 380.76 29.0018C382.56 29.1691 383.253 32.0135 383.668 33.7424C384.084 35.4714 383.336 40.0726 385.302 40.0726C388.294 40.0726 390.316 28.0536 392.615 28.0536C393.169 28.0536 394.249 29.1691 395.053 29.6431C395.823 29.1995 396.423 28.5082 396.757 27.6801C397.09 26.8521 397.138 25.9353 396.892 25.0768C396.646 24.2182 396.121 23.4677 395.4 22.9456C394.68 22.4235 393.807 22.16 392.92 22.1975C389.707 22.1975 388.848 29.3922 386.798 30.8144ZM533.385 91.8575C535.185 91.8575 539.756 84.9696 539.756 82.3483C539.756 80.452 530.643 77.5518 528.842 76.52C527.802 77.9584 527.007 79.5603 526.488 81.2607C524.438 86.3918 523.413 87.1726 528.205 89.6266C529.848 90.5316 531.585 91.2517 533.385 91.7738V91.8575ZM32.2427 27.3007C32.2427 24.0659 23.4342 22.3091 21.5507 22.3091C16.537 31.9577 14.7366 32.125 21.5507 34.6627C24.93 35.9176 26.1765 37.4513 28.6141 34.6627C30.4894 32.6025 31.7474 30.0502 32.2427 27.3007ZM388.072 63.4135C390.842 63.4135 394.194 61.0432 396.022 63.7481C393.418 64.3616 382.671 67.206 383.834 69.5764C384.305 71.4726 386.604 70.9985 388.626 70.7754C394.166 70.1341 401.202 68.6282 401.202 61.6009C401.154 60.889 400.964 60.1942 400.642 59.5582C400.321 58.9222 399.875 58.3581 399.332 57.8997C398.789 57.4414 398.159 57.0982 397.481 56.8908C396.803 56.6835 396.09 56.6161 395.385 56.6929C392.089 56.6929 389.568 61.2941 388.072 63.4135ZM502.333 40.4073C503.829 40.0168 503.885 38.5947 505.38 38.5947C506.997 38.5527 508.589 38.9995 509.951 39.8774C509.009 40.0168 498.4 44.144 498.4 47.2115C498.4 50.279 507.264 45.7893 508.594 45.2316C517.624 41.6064 519.286 33.3799 509.009 33.3799C507.227 33.5043 505.555 34.2936 504.321 35.5932C503.086 36.8929 502.377 38.6095 502.333 40.4073ZM123.347 102.594C123.347 105.131 129.469 107.669 131.657 108.171C134.098 105.551 136.067 102.521 137.474 99.2195C137.474 97.2395 135.369 97.0165 133.873 96.4308C132.265 95.7531 130.607 95.203 128.914 94.7856C126.726 94.7856 123.375 100.363 123.375 102.594H123.347ZM332.036 99.1916C332.036 102.426 341.232 96.2078 346.191 94.4509C348.421 93.6553 350.55 92.5976 352.534 91.2998C354.266 89.5237 355.416 87.2562 355.83 84.8023C353.808 85.8341 351.453 86.6985 349.321 87.814L343.033 90.9651C339.737 92.6383 331.953 94.7019 331.953 99.1916H332.036ZM214.423 68.5167C213.398 70.1062 210.822 70.887 210.822 73.7593C210.822 75.1815 212.235 75.3209 213.26 75.3209C213.26 75.3209 219.298 72.2534 219.298 68.2099C219.298 64.8078 218.828 65.4213 217.166 63.0788C217.886 61.7403 219.049 58.4218 216.307 58.4218C214.894 58.4218 212.374 61.2105 211.986 62.7721C211.127 65.7559 213.315 66.8714 214.423 68.5167ZM311.372 44.0325L312.951 41.5785H317.798C315.514 43.1515 313.073 44.4787 310.513 45.5383C309.488 46.0682 308.713 46.0682 308.63 47.7414C314.585 48.2154 322.064 44.9527 321.898 39.1245C321.898 36.0291 317.272 35.8897 314.281 37.0609C312.314 37.8696 308.935 42.192 311.372 44.0325ZM247.995 83.0733C249.353 83.3243 249.103 83.0733 250.35 82.3762L257.025 78.0259C258.623 77.1774 260.176 76.2466 261.679 75.2373C263.701 73.5083 262.925 72.0861 263.867 70.1062C260.499 71.3128 257.304 72.9631 254.366 75.0142C251.596 76.6037 248.078 78.8067 247.995 82.9897V83.0733ZM382.366 15.2538C382.366 23.8707 389.651 24.1217 389.651 17.1501C389.651 14.6961 386.05 16.5087 386.05 16.5087C385.247 15.4211 384.776 15.5606 384.776 13.7201C384.776 8.589 387.075 8.67264 386.66 3.29059C385.109 4.32238 384.555 6.69272 383.89 8.50533C383.025 10.6496 382.502 12.9176 382.339 15.2259L382.366 15.2538ZM16.0938 63.0788C18.4483 62.4375 18.5314 60.4575 21.6338 62.1307C19.7502 64.9193 14.4041 63.8597 14.3487 67.708C15.429 67.4849 20.9967 65.8117 21.8 65.4213C21.8 65.4213 30.3592 57.2785 19.8333 57.2785C17.3957 57.2785 16.1492 60.3739 16.1492 63.1346L16.0938 63.0788Z" fill="white"/>
</g>
<defs>
<filter id="filter0_d_1_1235" x="0.244141" y="0" width="543.512" height="116.171" filterUnits="userSpaceOnUse" color-interpolation-filters="sRGB">
<feFlood flood-opacity="0" result="BackgroundImageFix"/>
<feColorMatrix in="SourceAlpha" type="matrix" values="0 0 0 0 0 0 0 0 0 0 0 0 0 0 0 0 0 0 127 0" result="hardAlpha"/>
<feOffset dy="4"/>
<feGaussianBlur stdDeviation="2"/>
<feComposite in2="hardAlpha" operator="out"/>
<feColorMatrix type="matrix" values="0 0 0 0 0 0 0 0 0 0 0 0 0 0 0 0 0 0 0.25 0"/>
<feBlend mode="normal" in2="BackgroundImageFix" result="effect1_dropShadow_1_1235"/>
<feBlend mode="normal" in="SourceGraphic" in2="effect1_dropShadow_1_1235" result="shape"/>
</filter>
</defs>
</svg>
